<svg width="720" height="160" viewBox="0 0 720 160" fill="none" xmlns="http://www.w3.org/2000/svg" role="img" aria-labelledby="title desc">
<title id="title">LitroCerto logo</title>
<desc id="desc">Logo horizontal do LitroCerto com gota azul em gradiente e check branco arredondado.</desc>
<defs>
  <linearGradient id="dropGradient" x1="40" y1="22" x2="132" y2="146" gradientUnits="userSpaceOnUse">
    <stop offset="0" stop-color="#2DB8FF"/>
    <stop offset="1" stop-color="#006BFF"/>
  </linearGradient>
  <linearGradient id="textBlue" x1="396" y1="45" x2="656" y2="116" gradientUnits="userSpaceOnUse">
    <stop offset="0" stop-color="#158BFF"/>
    <stop offset="1" stop-color="#006BFF"/>
  </linearGradient>
</defs>

<!-- Símbolo -->
<path d="M86 18
C83.8 18 81.7 19.1 80.4 20.9
C61.2 47.2 36 81.3 36 108.2
C36 137.1 58.5 154 86 154
C113.5 154 136 137.1 136 108.2
C136 81.3 110.8 47.2 91.6 20.9
C90.3 19.1 88.2 18 86 18Z" fill="url(#dropGradient)"/>

<!-- Check suavizado -->
<path d="M61 101
C63.8 98.2 68.3 98.2 71.1 101
L81.2 111.1
C83.2 113.1 86.4 113.1 88.4 111.1
L111.4 88.1
C114.2 85.3 118.7 85.3 121.5 88.1
C124.3 90.9 124.3 95.4 121.5 98.2
L90.8 128.9
C87 132.7 80.8 132.7 77 128.9
L61 112.9
C58.2 110.1 58.2 105.6 61 102.8Z" fill="white"/>

<!-- Wordmark -->
<text x="180" y="111" font-family="Inter, Poppins, Montserrat, Arial, sans-serif" font-size="72" font-weight="800" letter-spacing="-2.5">
  <tspan fill="#071A33">Litro</tspan><tspan fill="url(#textBlue)">Certo</tspan>
</text>
</svg>